<?xml version="1.0" encoding="utf-8"?>
<!-- Generator: Adobe Illustrator 16.0.0, SVG Export Plug-In . SVG Version: 6.00 Build 0)  -->
<!DOCTYPE svg PUBLIC "-//W3C//DTD SVG 1.1//EN" "http://www.w3.org/Graphics/SVG/1.1/DTD/svg11.dtd">
<svg version="1.1" id="Layer_1" xmlns="http://www.w3.org/2000/svg" xmlns:xlink="http://www.w3.org/1999/xlink" x="0px" y="0px"
	 width="960px" height="560px" viewBox="0 0 960 560" enable-background="new 0 0 960 560" xml:space="preserve">
<g>
	<rect x="172" y="114" fill="#FFFFFF" width="538" height="350"/>
	<ellipse fill="#FFFFFF" cx="242.037" cy="489.795" rx="90.475" ry="69.417"/>
	<ellipse fill="#FFFFFF" cx="399.431" cy="474.561" rx="88.333" ry="71.914"/>
	<path fill="#FFFFFF" d="M626.956,461.774c0,46.075-33.317,83.429-74.412,83.429c-41.099,0-74.416-37.354-74.416-83.429
		c0-46.079,33.317-83.433,74.416-83.433C593.639,378.342,626.956,415.695,626.956,461.774z"/>
	<ellipse fill="#FFFFFF" cx="725.191" cy="357.326" rx="92.883" ry="77.06"/>
	<path fill="#FFFFFF" d="M960.479,216.899c0,71.928-67.229,130.24-150.166,130.24c-82.934,0-150.163-58.312-150.163-130.24
		c0-71.929,67.229-130.237,150.163-130.237C893.249,86.662,960.479,144.97,960.479,216.899z"/>
	<path fill="#FFFFFF" d="M728.673,433.751c0,46.077-33.317,83.429-74.412,83.429c-41.099,0-74.419-37.352-74.419-83.429
		c0-46.078,33.32-83.429,74.419-83.429C695.355,350.322,728.673,387.673,728.673,433.751z"/>
	<path fill="#FFFFFF" d="M234.227,448.476c0,38.336-40.505,69.415-90.474,69.415s-90.475-31.079-90.475-69.415
		c0-38.342,40.507-69.42,90.475-69.42S234.227,410.134,234.227,448.476z"/>
	<ellipse fill="#FFFFFF" cx="91.601" cy="347.868" rx="90.475" ry="69.417"/>
	<ellipse fill="#FFFFFF" cx="151.368" cy="239.313" rx="149.052" ry="77.367"/>
	<ellipse fill="#FFFFFF" cx="209.537" cy="122.54" rx="149.05" ry="77.366"/>
	<path fill="#FFFFFF" d="M595.272,77.625c0,42.729-66.731,77.367-149.048,77.367c-82.321,0-149.053-34.638-149.053-77.367
		c0-42.73,66.731-77.367,149.053-77.367C528.541,0.258,595.272,34.895,595.272,77.625z"/>
	<path fill="#FFFFFF" d="M829.953,138.708c0,42.728-66.73,77.366-149.051,77.366c-82.318,0-149.053-34.638-149.053-77.366
		c0-42.731,66.734-77.368,149.053-77.368C763.223,61.34,829.953,95.978,829.953,138.708z"/>
</g>
</svg>
